<?xml version="1.0" encoding="UTF-8"?>
<svg id="_レイヤー_1" data-name="レイヤー 1" xmlns="http://www.w3.org/2000/svg" viewBox="0 0 477.58 238.44">
  <defs>
    <style>
      .cls-1 {
        stroke-width: 4px;
      }

      .cls-1, .cls-2, .cls-3, .cls-4 {
        stroke-miterlimit: 10;
      }

      .cls-1, .cls-3, .cls-4 {
        fill: none;
        stroke: #fff;
      }

      .cls-2 {
        stroke: #2ea7e0;
        stroke-width: 7px;
      }

      .cls-2, .cls-5, .cls-6 {
        fill: #fff;
      }

      .cls-7 {
        fill: #2ea7e0;
      }

      .cls-7, .cls-5 {
        stroke-width: 0px;
      }

      .cls-3 {
        stroke-width: 3px;
      }

      .cls-6 {
        font-family: Castellar, Castellar;
        font-size: 21px;
      }

      .cls-8 {
        fill: #604c3f;
        font-family: Philosopher-Regular, Philosopher;
        font-size: 60px;
      }
    </style>
  </defs>
  <g>
    <circle class="cls-7" cx="88.28" cy="150.16" r="88.28"/>
    <g>
      <ellipse class="cls-5" cx="87.53" cy="174.6" rx="46.55" ry="2.6"/>
      <path class="cls-2" d="M127.67,135.95c0,18.98-17.98,34.37-40.15,34.37s-40.15-15.39-40.15-34.37"/>
      <path class="cls-1" d="M119.76,144.5c6.87-4.67,13.79-6.46,15.47-3.99s-2.36,8.01-8.97,12.62"/>
    </g>
    <path class="cls-3" d="M88.23,115.47c-23.29,4.74-15.11-20.94,5.24-12.49,4.26,1.77,11.33,4.93,8.23,12.38-.57,1.38-1.82,2.74-10.62,8.92-3.59,2.52-5.65,4.02-4.04,8.48"/>
    <text class="cls-6" transform="translate(29.24 206.39)"><tspan x="0" y="0">WCB CAFE</tspan></text>
    <line class="cls-4" x1="4.18" y1="185.86" x2="172.38" y2="185.86"/>
    <line class="cls-4" x1="19.63" y1="211.01" x2="156.94" y2="211.74"/>
    <g>
      <path class="cls-5" d="M54.25,94.68c-.92-.53-1.8-.7-2.8.19-.57.51-.71,1.23-.24,1.73.5.54,1.19.36,2.35-.08,1.81-.64,2.81-.75,3.5.13.96,1.24.23,2.85-.88,3.85-.73.66-1.55,1.07-1.99,1.21-.42-.29-1.21-.83-1.66-1.17.12-.16.24-.32.36-.47,1.03.53,2.12.69,3.12-.2.54-.48.72-1.21.27-1.77-.49-.59-1.16-.56-2.26-.17-1.44.51-2.68.97-3.54.1-.88-.88-.59-2.55.98-3.92.7-.61,1.38-.95,1.75-1.18.31.28,1.1,1.02,1.44,1.28-.13.16-.27.32-.4.48Z"/>
      <path class="cls-5" d="M59.36,97.63c-.1-.13-.19-.26-.29-.38.89-.79.96-.93.29-1.88-.68-.96-1.36-1.92-2.04-2.88-.61-.86-.71-.89-1.83-.27-.08-.11-.16-.22-.25-.33.8-.79,1.5-1.55,2.1-2.32.4.6.79,1.2,1.19,1.8.69,1.05,1.39,2.09,2.08,3.14.64.97.8.96,1.88.4.08.14.17.27.25.41-1.15.72-2.29,1.5-3.39,2.33ZM55.59,88.73c-.51.35-1.21.33-1.49-.06-.32-.44-.08-1.1.46-1.48.53-.37,1.19-.33,1.49.13.26.4.07,1.04-.46,1.4Z"/>
      <path class="cls-5" d="M68.2,92.36c-.07-.15-.13-.29-.2-.44.93-.53.99-.68.53-1.75-.37-.86-.74-1.73-1.12-2.59-.47-1.1-1.26-1.65-2.51-1.07-.77.36-1.31,1.1-1.65,1.82.62,1.18,1.24,2.37,1.86,3.55.55,1.05.66,1.02,1.68.62.07.14.14.29.21.43-1.18.58-2.34,1.21-3.48,1.9-.08-.14-.16-.27-.25-.41,1-.73,1.07-.83.51-1.82-.58-1.02-1.15-2.05-1.73-3.07-.54-.97-.7-.95-1.75-.51-.08-.13-.15-.26-.23-.38.82-.65,1.62-1.34,2.26-2.04.18.35.44.83.63,1.2.26-.4.55-.84.91-1.34.39-.53.8-.96,1.36-1.21,1.55-.7,2.9-.13,3.5,1.41.4,1.01.8,2.02,1.2,3.02.43,1.08.55,1.08,1.58.81.06.15.11.3.17.45-1.17.43-2.33.91-3.47,1.43Z"/>
      <path class="cls-5" d="M78.96,87.31c-.62,1.13-1.62,2.11-2.65,2.38-2.17.57-4.02-.63-4.63-2.36-.44-1.28-.17-2.57.89-3.81.84-.99,1.99-1.57,2.78-1.76.91-.22,1.64-.12,1.98.04.32.13.38.24.42.42.08.4-.35.85-.56.9-.1.02-.18,0-.41-.09-.71-.34-1.45-.41-2.17-.22-1.32.34-2.18,1.61-1.65,3.31.7,2.27,2.6,2.52,3.62,2.28.75-.18,1.31-.5,2-1.41.13.1.26.21.38.31Z"/>
      <path class="cls-5" d="M86.61,86.53c-1.12,1.41-2.32,1.8-2.89,1.85-2.14.21-3.73-1.22-4.08-3.16-.2-1.15.08-2.29.8-3.16.72-.92,1.81-1.5,2.89-1.6,1.81-.16,3.22,1.09,3.26,2.45,0,.34-.06.5-.37.58-.39.08-2.87.36-5.15.76.28,2.27,1.9,3,3.17,2.89.75-.06,1.41-.4,2.07-1.01.1.13.21.25.31.38ZM82.89,81.16c-.94.09-1.77.94-1.84,2.36,1.09-.15,2.19-.27,3.35-.41.35-.03.47-.12.45-.38-.04-.9-.8-1.68-1.95-1.57Z"/>
      <path class="cls-5" d="M99.88,86.98c-.41.69-.91,1.48-1.21,2.06-2.2-.47-4.44-.79-6.68-.96.01-.14.02-.27.03-.41,1.06-.85,2.27-1.74,3.33-2.58,1.36-1.1,2.79-2.23,3.06-3.69.26-1.39-.52-2.38-2.08-2.6-1.48-.2-2.49.64-3.08,1.26-.15-.13-.3-.26-.45-.4.43-.43.88-.86,1.33-1.28.72-.53,1.82-.84,3.08-.66,2.08.31,3.45,1.76,3.05,3.56-.3,1.43-1.17,2.27-3.26,3.6-.95.62-2.27,1.49-3.12,2.11.11-.02,3.31.44,3.47.5.98.18,1.25.16,2.11-.76.14.08.29.16.43.24Z"/>
      <path class="cls-5" d="M107.72,80.3c3.18,1.12,3.14,4.31,2.07,6.72-1.02,2.3-3.16,4.62-5.66,3.75-2.56-.86-2.86-3.79-2.21-6.43.59-2.41,2.57-5.12,5.8-4.04ZM107.53,80.87c-1.95-.66-3.14,1.65-3.81,3.94-.67,2.31-.89,4.89.6,5.4,1.53.53,2.87-1.66,3.76-3.89.89-2.23,1.31-4.8-.55-5.45Z"/>
      <path class="cls-5" d="M116.75,94.3c-.64.5-1.39,1.05-1.89,1.48-1.95-1.27-3.98-2.39-6.05-3.35.06-.12.12-.25.17-.37,1.3-.42,2.77-.81,4.08-1.2,1.68-.53,3.45-1.06,4.23-2.33.74-1.21.33-2.43-1.08-3.2-1.34-.73-2.6-.3-3.38.06-.1-.18-.19-.36-.29-.53.56-.25,1.14-.48,1.71-.71.87-.24,2.03-.13,3.17.51,1.88,1.05,2.7,2.93,1.68,4.47-.79,1.23-1.92,1.69-4.39,2.16-1.13.23-2.69.57-3.73.83.11.02,3.01,1.63,3.15,1.75.88.53,1.15.61,2.29.07.11.13.22.26.33.38Z"/>
      <path class="cls-5" d="M123.48,98.57c-.29.32-.59.64-.88.95-.77.83-.76.94.14,1.98-.11.11-.22.23-.34.34-1.07-1.05-2.18-2.04-3.32-2.98.1-.12.2-.25.3-.37,1.18.82,1.31.82,2.06-.03.28-.32.56-.65.84-.97-1.34-1.17-2.73-2.26-4.16-3.26.1-.14.2-.28.3-.42,2.88-.8,6.18-1.39,9.5-1.6.26.23.52.47.78.71-1.56,1.68-3.11,3.36-4.67,5.05.5.46.98.93,1.47,1.41-.19.19-.39.39-.58.58-.47-.47-.95-.94-1.44-1.39ZM126.16,93.04c-2.1.25-4.37.67-6.54,1.25,1.09.81,2.16,1.67,3.21,2.58,1.11-1.28,2.22-2.56,3.33-3.83Z"/>
    </g>
  </g>
  <text class="cls-8" transform="translate(192.89 167.52)"><tspan x="0" y="0">WEB CAFE</tspan></text>
  <text/>
</svg>